<?xml version="1.0" encoding="UTF-8" standalone="no" ?>
<!DOCTYPE svg PUBLIC "-//W3C//DTD SVG 1.1//EN" "http://www.w3.org/Graphics/SVG/1.1/DTD/svg11.dtd">
<svg xmlns="http://www.w3.org/2000/svg" xmlns:xlink="http://www.w3.org/1999/xlink" version="1.1" width="32" height="48" viewBox="0 0 32 48" xml:space="preserve">
<desc>Created with Fabric.js 5.2.4</desc>
<defs>
</defs>
<g transform="matrix(1 0 0 1 540 540)" id="208c454c-944a-430d-a68e-7ae9f3505596"  >
<rect style="stroke: none; stroke-width: 1; stroke-dasharray: none; stroke-linecap: butt; stroke-dashoffset: 0; stroke-linejoin: miter; stroke-miterlimit: 4; fill: rgb(255,255,255); fill-rule: nonzero; opacity: 1; visibility: hidden;" vector-effect="non-scaling-stroke"  x="-540" y="-540" rx="0" ry="0" width="1080" height="1080" />
</g>
<g transform="matrix(1 0 0 1 540 540)" id="2906d114-aeed-41e8-9984-f43246f24807"  >
</g>
<g transform="matrix(1 0 0 1 540 540)"  >
<g style="" vector-effect="non-scaling-stroke"   >
		<g transform="matrix(1.33 0 0 1.33 -5.33 10.38)"  >
<path style="stroke: rgb(0,0,0); stroke-width: 1.5; stroke-dasharray: none; stroke-linecap: butt; stroke-dashoffset: 0; stroke-linejoin: miter; stroke-miterlimit: 4; fill: none; fill-rule: nonzero; opacity: 1;" vector-effect="non-scaling-stroke"  transform=" translate(-7.5, -19.5)" d="M 7.5 18 C 8.32843 18 9 18.6716 9 19.5 C 9 20.3284 8.32843 21 7.5 21 C 6.67157 21 6 20.3284 6 19.5 C 6 18.6716 6.67157 18 7.5 18 Z" stroke-linecap="round" />
</g>
		<g transform="matrix(1.33 0 0 1.33 6.67 10.38)"  >
<path style="stroke: rgb(0,0,0); stroke-width: 1.5; stroke-dasharray: none; stroke-linecap: butt; stroke-dashoffset: 0; stroke-linejoin: miter; stroke-miterlimit: 4; fill: none; fill-rule: nonzero; opacity: 1;" vector-effect="non-scaling-stroke"  transform=" translate(-16.5, -19.5)" d="M 16.5 18.0001 C 17.3284 18.0001 18 18.6716 18 19.5001 C 18 20.3285 17.3284 21.0001 16.5 21.0001 C 15.6716 21.0001 15 20.3285 15 19.5001 C 15 18.6716 15.6716 18.0001 16.5 18.0001 Z" stroke-linecap="round" />
</g>
		<g transform="matrix(1.33 0 0 1.33 0 -3.29)"  >
<path style="stroke: none; stroke-width: 1; stroke-dasharray: none; stroke-linecap: butt; stroke-dashoffset: 0; stroke-linejoin: miter; stroke-miterlimit: 4; fill: rgb(0,0,0); fill-rule: nonzero; opacity: 1;" vector-effect="non-scaling-stroke"  transform=" translate(-11.5, -9.25)" d="M 2.26121 3.09184 L 2.50997 2.38429 L 2.50997 2.38429 L 2.26121 3.09184 Z M 2.24876 2.29246 C 1.85799 2.15507 1.42984 2.36048 1.29246 2.75124 C 1.15507 3.14201 1.36048 3.57016 1.75124 3.70754 L 2.24876 2.29246 Z M 4.58584 4.32298 L 5.20507 3.89983 L 5.20507 3.89983 L 4.58584 4.32298 Z M 5.88772 14.5862 L 5.34345 15.1022 L 5.34345 15.1022 L 5.88772 14.5862 Z M 20.6578 9.88275 L 21.3923 10.0342 L 21.3933 10.0296 L 20.6578 9.88275 Z M 20.158 12.3075 L 20.8926 12.4589 L 20.158 12.3075 Z M 20.7345 6.69708 L 20.1401 7.15439 L 20.7345 6.69708 Z M 19.1336 15.0504 L 18.6598 14.469 L 19.1336 15.0504 Z M 5.70808 9.76 L 5.70808 7.03836 L 4.20808 7.03836 L 4.20808 9.76 L 5.70808 9.76 Z M 2.50997 2.38429 L 2.24876 2.29246 L 1.75124 3.70754 L 2.01245 3.79938 L 2.50997 2.38429 Z M 10.9375 16.25 L 16.2404 16.25 L 16.2404 14.75 L 10.9375 14.75 L 10.9375 16.25 Z M 5.70808 7.03836 C 5.70808 6.3312 5.7091 5.7411 5.65719 5.26157 C 5.60346 4.76519 5.48705 4.31247 5.20507 3.89983 L 3.96661 4.74613 C 4.05687 4.87822 4.12657 5.05964 4.1659 5.42299 C 4.20706 5.8032 4.20808 6.29841 4.20808 7.03836 L 5.70808 7.03836 Z M 2.01245 3.79938 C 2.68006 4.0341 3.11881 4.18965 3.44166 4.34806 C 3.74488 4.49684 3.87855 4.61727 3.96661 4.74613 L 5.20507 3.89983 C 4.92089 3.48397 4.54304 3.21763 4.10241 3.00143 C 3.68139 2.79485 3.14395 2.60719 2.50997 2.38429 L 2.01245 3.79938 Z M 4.20808 9.76 C 4.20808 11.2125 4.22171 12.2599 4.35876 13.0601 C 4.50508 13.9144 4.79722 14.5261 5.34345 15.1022 L 6.43198 14.0702 C 6.11182 13.7325 5.93913 13.4018 5.83723 12.8069 C 5.72607 12.1578 5.70808 11.249 5.70808 9.76 L 4.20808 9.76 Z M 10.9375 14.75 C 9.52069 14.75 8.53763 14.7482 7.79696 14.6432 C 7.08215 14.5418 6.70452 14.3576 6.43198 14.0702 L 5.34345 15.1022 C 5.93731 15.7286 6.69012 16.0013 7.58636 16.1283 C 8.45674 16.2518 9.56535 16.25 10.9375 16.25 L 10.9375 14.75 Z M 4.95808 6.87 L 17.0888 6.87 L 17.0888 5.37 L 4.95808 5.37 L 4.95808 6.87 Z M 19.9232 9.73135 L 19.4235 12.1561 L 20.8926 12.4589 L 21.3923 10.0342 L 19.9232 9.73135 Z M 17.0888 6.87 C 17.9452 6.87 18.6989 6.871 19.2937 6.93749 C 19.5893 6.97053 19.8105 7.01643 19.9659 7.07105 C 20.1273 7.12776 20.153 7.17127 20.1401 7.15439 L 21.329 6.23978 C 21.094 5.93436 20.7636 5.76145 20.4632 5.65587 C 20.1567 5.54818 19.8101 5.48587 19.4604 5.44678 C 18.7646 5.369 17.9174 5.37 17.0888 5.37 L 17.0888 6.87 Z M 21.3933 10.0296 C 21.5625 9.18167 21.7062 8.47024 21.7414 7.90038 C 21.7775 7.31418 21.7108 6.73617 21.329 6.23978 L 20.1401 7.15439 C 20.2021 7.23508 20.2706 7.38037 20.2442 7.80797 C 20.2168 8.25191 20.1002 8.84478 19.9223 9.73595 L 21.3933 10.0296 Z M 16.2404 16.25 C 17.0021 16.25 17.6413 16.2513 18.1566 16.1882 C 18.6923 16.1227 19.1809 15.9794 19.6074 15.6318 L 18.6598 14.469 C 18.5346 14.571 18.3571 14.6525 17.9744 14.6994 C 17.5712 14.7487 17.0397 14.75 16.2404 14.75 L 16.2404 16.25 Z M 19.4235 12.1561 C 19.2621 12.9389 19.1535 13.4593 19.0238 13.8442 C 18.9007 14.2095 18.785 14.367 18.6598 14.469 L 19.6074 15.6318 C 20.0339 15.2842 20.2729 14.8346 20.4453 14.3232 C 20.6111 13.8312 20.7388 13.2049 20.8926 12.4589 L 19.4235 12.1561 Z" stroke-linecap="round" />
</g>
</g>
</g>
<g transform="matrix(0.09 0 0 0.09 552.14 532.9)" id="724c64e4-451c-4871-956e-920abde4aa65"  >
<circle style="stroke: rgb(0,0,0); stroke-width: 0; stroke-dasharray: none; stroke-linecap: butt; stroke-dashoffset: 0; stroke-linejoin: miter; stroke-miterlimit: 4; fill: rgb(255,0,0); fill-rule: nonzero; opacity: 1;" vector-effect="non-scaling-stroke"  cx="0" cy="0" r="35" />
</g>
</svg>