<?xml version="1.0" standalone="no"?>
<!DOCTYPE svg PUBLIC "-//W3C//DTD SVG 20010904//EN"
 "http://www.w3.org/TR/2001/REC-SVG-20010904/DTD/svg10.dtd">
<svg version="1.0" xmlns="http://www.w3.org/2000/svg"
 width="128px" height="48px" viewBox="0 0 2000.000000 621.000000"
 preserveAspectRatio="xMidYMid meet">

<g transform="translate(0.000000,621.000000) scale(0.100000,-0.100000)"
fill="#ffffff" stroke="none">
<path d="M17060 6195 c-151 -33 -300 -143 -372 -275 -67 -120 -71 -145 -76
-451 l-4 -275 -61 -34 c-196 -106 -385 -248 -542 -405 -197 -196 -335 -389
-454 -636 -161 -333 -231 -637 -231 -1014 0 -380 70 -686 234 -1020 190 -387
456 -690 814 -926 57 -38 134 -85 172 -105 l68 -36 4 -276 c4 -228 8 -287 22
-332 64 -202 231 -354 435 -396 109 -22 1133 -16 1201 7 148 51 283 162 348
285 54 104 62 159 62 447 l0 258 31 17 c110 60 248 147 334 212 118 88 321
283 412 395 212 262 368 572 449 891 55 221 69 332 69 579 0 247 -14 358 -69
579 -81 320 -236 626 -449 891 -158 196 -433 430 -647 550 -47 27 -95 54 -107
62 -23 13 -23 15 -23 271 0 194 -4 273 -15 321 -43 179 -188 335 -375 403 -65
23 -66 23 -615 25 -444 2 -563 -1 -615 -12z m920 -1435 c506 -108 933 -431
1164 -880 515 -1000 -60 -2195 -1169 -2431 -97 -21 -137 -24 -330 -24 -191 1
-234 4 -325 23 -735 159 -1265 739 -1350 1477 -70 614 221 1235 742 1582 211
140 432 227 687 268 134 22 446 14 581 -15z"/>
<path d="M18157 4000 c-83 -21 -125 -55 -382 -311 l-260 -258 -375 -3 c-426
-4 -431 -5 -519 -84 -74 -67 -106 -138 -106 -239 0 -101 32 -172 106 -239 90
-81 89 -81 619 -81 429 0 469 1 520 19 51 17 81 44 393 355 388 386 392 391
392 526 0 62 -6 92 -24 132 -27 61 -103 136 -165 164 -53 23 -146 32 -199 19z"/>
<path d="M14005 5701 c-50 -22 -91 -69 -105 -119 -14 -52 -14 -4902 1 -4955
23 -85 115 -145 205 -134 59 6 120 49 148 102 l21 40 3 2445 c2 1762 0 2458
-8 2490 -30 121 -154 182 -265 131z"/>
<path d="M10168 5270 c-240 -43 -418 -189 -502 -412 -51 -135 -58 -193 -63
-520 l-5 -308 -159 0 -159 0 0 -185 0 -185 160 0 160 0 0 -815 0 -815 230 0
230 0 0 815 0 815 235 0 235 0 0 185 0 185 -236 0 -235 0 3 298 c3 277 5 301
25 350 49 121 120 173 243 180 90 5 144 -9 215 -58 25 -17 45 -27 45 -23 0 4
18 95 40 201 22 106 40 201 40 212 0 15 -19 25 -97 51 -87 28 -113 32 -228 35
-71 1 -151 -1 -177 -6z"/>
<path d="M1734 4523 c3 -390 9 -744 12 -788 l5 -80 -38 64 c-145 241 -486 387
-828 352 -249 -25 -434 -110 -586 -268 -186 -192 -280 -452 -279 -768 1 -294
93 -545 271 -739 267 -292 737 -394 1085 -236 129 58 251 157 316 256 l43 65
6 -173 c3 -95 6 -174 7 -175 1 -2 101 -3 222 -3 l220 0 0 1600 0 1600 -231 0
-231 0 6 -707z m-474 -859 c201 -59 354 -226 410 -448 24 -96 27 -277 5 -378
-42 -203 -194 -372 -389 -434 -99 -32 -253 -36 -354 -10 -198 51 -330 189
-394 411 -18 66 -22 105 -22 225 -1 168 13 231 74 355 83 168 208 261 392 295
70 12 210 4 278 -16z"/>
<path d="M4571 5005 c-142 -40 -220 -141 -221 -286 0 -65 4 -85 31 -137 58
-117 164 -177 299 -170 167 10 277 122 288 294 4 68 2 79 -27 139 -66 133
-222 201 -370 160z"/>
<path d="M8433 5010 c-90 -19 -172 -81 -215 -163 -33 -61 -33 -192 0 -259 51
-103 147 -167 261 -176 167 -12 304 93 329 251 29 183 -89 335 -273 351 -33 3
-79 1 -102 -4z"/>
<path d="M3741 4065 c-179 -40 -337 -168 -422 -340 l-44 -89 -3 197 -2 197
-230 0 -230 0 0 -1000 0 -1000 230 0 230 0 0 543 c1 598 5 652 59 762 54 109
176 204 316 247 73 23 219 30 301 16 l40 -8 28 208 c15 114 30 217 33 229 4
18 -1 25 -23 33 -48 19 -212 21 -283 5z"/>
<path d="M6645 4070 c-253 -33 -475 -174 -588 -372 -12 -21 -25 -38 -29 -38
-5 0 -8 83 -8 185 l0 185 -220 0 -220 0 0 -1530 0 -1530 227 0 226 0 -7 675
c-4 389 -3 675 2 675 5 0 22 -18 38 -41 76 -110 258 -225 415 -263 164 -40
384 -40 534 0 96 26 256 108 338 173 183 148 308 371 353 631 22 128 14 416
-14 540 -67 286 -210 484 -442 608 -164 89 -401 128 -605 102z m220 -425 c194
-65 310 -206 357 -434 16 -78 19 -119 15 -221 -7 -147 -24 -216 -80 -324 -99
-192 -266 -288 -502 -289 -353 -2 -605 273 -605 659 0 323 180 563 471 629 95
22 246 13 344 -20z"/>
<path d="M4420 3030 l0 -1000 245 0 245 0 0 1000 0 1000 -245 0 -245 0 0
-1000z"/>
<path d="M8270 3030 l0 -1000 240 0 240 0 0 1000 0 1000 -240 0 -240 0 0
-1000z"/>
<path d="M10755 3993 c9 -21 196 -486 416 -1035 l401 -996 -197 -471 c-108
-260 -205 -492 -215 -516 l-19 -45 242 0 242 0 610 1540 c335 847 611 1544
613 1550 3 7 -83 10 -250 10 l-253 0 -228 -648 c-126 -356 -248 -712 -273
-792 -25 -79 -47 -146 -49 -148 -2 -2 -13 29 -25 70 -12 40 -130 398 -262 796
l-241 722 -263 0 -264 0 15 -37z"/>
</g>
</svg>
